<svg xmlns="http://www.w3.org/2000/svg" width="35.969" height="22.4" viewBox="0 0 35.969 22.4">
  <path d="M535.009,4248.06H526v-2.24h9.013v2.24h0ZM520,4257.24a5.913,5.913,0,0,1,.872,3.28,6.519,6.519,0,0,1-.994,3.57,6.14,6.14,0,0,1-4.109,2.88,15.671,15.671,0,0,1-3.16.31H502.529v-22.39h10.808q4.086,0.06,5.8,2.38a5.716,5.716,0,0,1,1.023,3.42,4.99,4.99,0,0,1-1.034,3.3,5.314,5.314,0,0,1-1.7,1.27A5.015,5.015,0,0,1,520,4257.24Zm-12.308-3.53h4.736a4.484,4.484,0,0,0,2.365-.55,2.122,2.122,0,0,0,.908-1.97,2,2,0,0,0-1.2-2.06,8.491,8.491,0,0,0-2.642-.35H507.69v4.93Zm8.465,6.49a2.4,2.4,0,0,0-1.424-2.4,5.713,5.713,0,0,0-2.237-.38h-4.8v5.97h4.729a5.169,5.169,0,0,0,2.266-.4A2.806,2.806,0,0,0,516.155,4260.2Zm22.2-3.64a20.965,20.965,0,0,1,.138,3.18H526.82a3.822,3.822,0,0,0,1.675,3.38,4.174,4.174,0,0,0,2.31.61,3.5,3.5,0,0,0,2.326-.74,3.431,3.431,0,0,0,.861-1.1h4.278a5.217,5.217,0,0,1-1.553,2.9,7.781,7.781,0,0,1-6.029,2.34,8.765,8.765,0,0,1-5.646-1.97q-2.441-1.98-2.445-6.43a8.677,8.677,0,0,1,2.206-6.39,7.707,7.707,0,0,1,5.735-2.22,8.988,8.988,0,0,1,3.769.75,6.5,6.5,0,0,1,2.767,2.37A7.9,7.9,0,0,1,538.353,4256.56Zm-4.211.41a3.512,3.512,0,0,0-1.12-2.53,3.644,3.644,0,0,0-2.484-.87,3.321,3.321,0,0,0-2.5.92,4.343,4.343,0,0,0-1.117,2.48h7.222Z" transform="translate(-502.531 -4244.88)"/>
</svg>
