<svg xmlns="http://www.w3.org/2000/svg" width="27.593" height="25.47" viewBox="0 0 27.593 25.47">
  <path d="M933.4,1604.11a0.425,0.425,0,0,0-.446-0.06l-26.774,12.39a0.414,0.414,0,0,0-.238.37,0.419,0.419,0,0,0,.23.38l7.577,3.7a0.415,0.415,0,0,0,.429-0.04l7.367-5.49-5.783,5.93a0.417,0.417,0,0,0-.116.32l0.576,7.47a0.406,0.406,0,0,0,.282.36,0.577,0.577,0,0,0,.129.02,0.42,0.42,0,0,0,.313-0.14l4.021-4.65,4.972,2.37a0.45,0.45,0,0,0,.342.01,0.412,0.412,0,0,0,.229-0.26l7.011-22.24A0.421,0.421,0,0,0,933.4,1604.11Z" transform="translate(-905.938 -1604)"/>
</svg>
