<svg xmlns="http://www.w3.org/2000/svg" width="28.594" height="30" viewBox="0 0 28.594 30">
  <path d="M848.858,1169.64a1.469,1.469,0,0,0-1.465,1.47v5.61a1.465,1.465,0,1,0,2.929,0v-5.61A1.469,1.469,0,0,0,848.858,1169.64Zm-6.735,3.19a1.457,1.457,0,0,0-2.046-.33,1.481,1.481,0,0,0-.324,2.06l3.287,4.54a1.468,1.468,0,0,0,2.046.32,1.467,1.467,0,0,0,.324-2.05Zm-6.532,9.03,5.318,1.73a1.42,1.42,0,0,0,.452.07,1.462,1.462,0,0,0,1.393-1.01,1.484,1.484,0,0,0-.94-1.86l-5.318-1.73a1.464,1.464,0,0,0-1.846.94A1.485,1.485,0,0,0,835.591,1181.86Zm7.163,4.77a1.455,1.455,0,0,0-1.845-.94l-5.318,1.73a1.472,1.472,0,0,0,.452,2.87,1.431,1.431,0,0,0,.453-0.07l5.318-1.74a1.469,1.469,0,0,0,.94-1.85h0Zm2.332,3.22a1.457,1.457,0,0,0-2.046.33l-3.287,4.54a1.467,1.467,0,0,0,.324,2.05,1.45,1.45,0,0,0,.86.28,1.471,1.471,0,0,0,1.186-.6l3.287-4.54A1.482,1.482,0,0,0,845.086,1189.85Zm3.772,1.23a1.469,1.469,0,0,0-1.465,1.47v5.62a1.465,1.465,0,1,0,2.929,0v-5.62A1.469,1.469,0,0,0,848.858,1191.08Zm5.817-.9a1.456,1.456,0,0,0-2.045-.33,1.48,1.48,0,0,0-.324,2.06l3.287,4.54a1.469,1.469,0,0,0,2.047.32,1.468,1.468,0,0,0,.323-2.05l-3.288-4.54h0Zm7.45-2.76-5.318-1.73a1.467,1.467,0,0,0-.9,2.79l5.318,1.74a1.426,1.426,0,0,0,.453.07A1.472,1.472,0,0,0,862.125,1187.42Zm-7.164-4.77a1.462,1.462,0,0,0,1.393,1.01,1.431,1.431,0,0,0,.453-0.07l5.318-1.73a1.484,1.484,0,0,0,.94-1.86,1.463,1.463,0,0,0-1.845-.94l-5.318,1.73A1.476,1.476,0,0,0,854.961,1182.65Zm-2.331-3.23a1.45,1.45,0,0,0,.86.28,1.471,1.471,0,0,0,1.186-.6l3.287-4.54a1.481,1.481,0,0,0-.323-2.06,1.457,1.457,0,0,0-2.046.33l-3.287,4.54A1.466,1.466,0,0,0,852.63,1179.42Z" transform="translate(-834.562 -1169.62)"/>
</svg>
