<svg xmlns="http://www.w3.org/2000/svg" width="27.563" height="27.5" viewBox="0 0 27.563 27.5">
  <path d="M780.812,4242.25A13.755,13.755,0,1,0,794.591,4256,13.767,13.767,0,0,0,780.812,4242.25Zm1.336,18.38c-1.252-.1-1.778-0.72-2.759-1.31-0.54,2.82-1.2,5.53-3.152,6.95-0.6-4.27.885-7.48,1.576-10.89-1.178-1.98.142-5.96,2.627-4.98,3.058,1.21-2.648,7.36,1.182,8.13,4,0.8,5.633-6.93,3.153-9.44-3.584-3.63-10.431-.09-9.589,5.11,0.2,1.27,1.52,1.66.525,3.41-2.293-.5-2.978-2.31-2.89-4.72,0.142-3.94,3.547-6.7,6.962-7.08,4.319-.48,8.373,1.58,8.933,5.64C789.346,4256.03,786.766,4260.99,782.148,4260.63Z" transform="translate(-767.031 -4242.25)"/>
</svg>
