<svg xmlns="http://www.w3.org/2000/svg" width="15.094" height="27.82" viewBox="0 0 15.094 27.82">
  <path d="M614.3,4242.1l-3.623-.01c-4.069,0-6.7,2.69-6.7,6.85v3.16H600.34a0.564,0.564,0,0,0-.57.56v4.58a0.573,0.573,0,0,0,.57.57h3.642v11.54a0.573,0.573,0,0,0,.569.57H609.3a0.573,0.573,0,0,0,.57-0.57v-11.54h4.258a0.573,0.573,0,0,0,.57-0.57v-4.58a0.573,0.573,0,0,0-.166-0.4,0.594,0.594,0,0,0-.4-0.16h-4.26v-2.68c0-1.29.308-1.94,1.99-1.94h2.44a0.572,0.572,0,0,0,.569-0.57v-4.25A0.563,0.563,0,0,0,614.3,4242.1Z" transform="translate(-599.781 -4242.09)"/>
</svg>
