<svg xmlns="http://www.w3.org/2000/svg" width="30.031" height="24.41" viewBox="0 0 30.031 24.41">
  <path d="M709.169,4246.69a12.363,12.363,0,0,1-3.541.97,6.169,6.169,0,0,0,2.711-3.41,12.344,12.344,0,0,1-3.915,1.5,6.166,6.166,0,0,0-10.665,4.21,6.251,6.251,0,0,0,.16,1.41,17.509,17.509,0,0,1-12.707-6.44,6.158,6.158,0,0,0,1.907,8.22,6.014,6.014,0,0,1-2.792-.77v0.08a6.156,6.156,0,0,0,4.945,6.04,6.21,6.21,0,0,1-1.624.22,6.319,6.319,0,0,1-1.16-.11,6.168,6.168,0,0,0,5.759,4.28,12.392,12.392,0,0,1-7.657,2.64,11.93,11.93,0,0,1-1.471-.09,17.446,17.446,0,0,0,9.451,2.77c11.34,0,17.541-9.39,17.541-17.53,0-.27-0.006-0.54-0.018-0.8A12.621,12.621,0,0,0,709.169,4246.69Z" transform="translate(-679.125 -4243.81)"/>
</svg>
