<svg xmlns="http://www.w3.org/2000/svg" width="24" height="24.25" viewBox="0 0 24 24.25">
  <path d="M459.237,1194.92H440.77v-18.65h13.621l1.153-1.86H440.77a1.852,1.852,0,0,0-1.846,1.86v18.65a1.852,1.852,0,0,0,1.846,1.86h18.467a1.852,1.852,0,0,0,1.846-1.86v-12.31l-1.846,2.98v9.33Zm3.109-22.16a1.25,1.25,0,0,0-.707-0.22,1.3,1.3,0,0,0-1.082.59l-10.039,14.63-3.883-4.48a1.284,1.284,0,0,0-1.828.07,1.32,1.32,0,0,0,.072,1.85l4.668,5.37,0.113,0.14,0.118,0.13,0.048,0.03,0.1,0.1,0.253,0.12,0.057,0.02,0.4,0.07h0.017a1.281,1.281,0,0,0,.957-0.41l0.1-.17,0-.01,11.006-16.03A1.307,1.307,0,0,0,462.346,1172.76Z" transform="translate(-438.938 -1172.53)"/>
</svg>
