<svg xmlns="http://www.w3.org/2000/svg" width="20.407" height="23.25" viewBox="0 0 20.407 23.25">
  <path d="M587.773,3966.55h-0.062a1.407,1.407,0,0,0-1.426,1.38v6.05a1.407,1.407,0,0,0,1.426,1.38h0.062a1.407,1.407,0,0,0,1.427-1.38v-6.05A1.407,1.407,0,0,0,587.773,3966.55Zm2.11,9.76a1.294,1.294,0,0,0,1.312,1.27h1.4v3.26a1.41,1.41,0,0,0,1.428,1.39h0.061a1.41,1.41,0,0,0,1.429-1.39v-3.26h1.958v3.26a1.412,1.412,0,0,0,1.43,1.39h0.059a1.41,1.41,0,0,0,1.429-1.39v-3.26h1.4a1.294,1.294,0,0,0,1.311-1.27v-9.54h-13.22v9.54Zm9.9-15.33,1.113-1.67a0.216,0.216,0,0,0-.07-0.31,0.235,0.235,0,0,0-.327.06l-1.154,1.73a7.815,7.815,0,0,0-5.709,0l-1.151-1.73a0.237,0.237,0,0,0-.329-0.06,0.216,0.216,0,0,0-.07.31l1.114,1.67a5.483,5.483,0,0,0-3.363,4.83c0,0.13.008,0.26,0.019,0.38h13.271c0.011-.12.018-0.25,0.018-0.38A5.482,5.482,0,0,0,599.785,3960.98Zm-6.368,3a0.631,0.631,0,0,1-.639-0.62,0.639,0.639,0,0,1,1.278,0A0.631,0.631,0,0,1,593.417,3963.98Zm6.152,0a0.631,0.631,0,0,1-.638-0.62A0.638,0.638,0,1,1,599.569,3963.98Zm5.705,2.57h-0.06a1.409,1.409,0,0,0-1.429,1.38v6.05a1.409,1.409,0,0,0,1.429,1.38h0.06a1.407,1.407,0,0,0,1.427-1.38v-6.05A1.407,1.407,0,0,0,605.274,3966.55Z" transform="translate(-586.281 -3958.97)"/>
</svg>
