<svg xmlns="http://www.w3.org/2000/svg" width="18" height="22.06" viewBox="0 0 18 22.06">
  <path d="M304.936,3970.45a4.964,4.964,0,0,1,2.386-4.2,5.162,5.162,0,0,0-4.042-2.19c-1.721-.18-3.359,1.01-4.232,1.01s-2.22-.99-3.648-0.96a5.412,5.412,0,0,0-4.572,2.77c-1.949,3.38-.5,8.38,1.4,11.12,0.928,1.34,2.035,2.85,3.489,2.79,1.4-.05,1.929-0.9,3.621-0.9s2.168,0.9,3.649.88c1.506-.03,2.461-1.37,3.383-2.72a12.035,12.035,0,0,0,1.531-3.14A4.855,4.855,0,0,1,304.936,3970.45Zm-2.784-8.21a4.845,4.845,0,0,0,1.15-3.52,4.943,4.943,0,0,0-3.255,1.67,4.637,4.637,0,0,0-1.174,3.42A4.106,4.106,0,0,0,302.152,3962.24Z" transform="translate(-289.906 -3958.72)"/>
</svg>
