<svg xmlns="http://www.w3.org/2000/svg" style="display:none"><symbol id="icon-airplane" viewbox="0 0 27.593 25.47"><path d="M27.462.11a.425.425 0 0 0-.446-.06L.242 12.44a.414.414 0 0 0-.238.37.419.419 0 0 0 .23.38l7.577 3.7a.415.415 0 0 0 .429-.04l7.367-5.49-5.783 5.93a.417.417 0 0 0-.116.32l.576 7.47a.406.406 0 0 0 .282.36.577.577 0 0 0 .129.02.42.42 0 0 0 .313-.14l4.021-4.65 4.972 2.37a.45.45 0 0 0 .342.01.412.412 0 0 0 .229-.26L27.583.55a.421.421 0 0 0-.121-.44z"/></symbol><symbol id="icon-android" viewbox="0 0 20.407 23.25"><path d="M1.492 7.58H1.43A1.407 1.407 0 0 0 .004 8.96v6.05a1.407 1.407 0 0 0 1.426 1.38h.062a1.407 1.407 0 0 0 1.427-1.38V8.96a1.407 1.407 0 0 0-1.427-1.38zm2.11 9.76a1.294 1.294 0 0 0 1.312 1.27h1.4v3.26a1.41 1.41 0 0 0 1.428 1.39h.061a1.41 1.41 0 0 0 1.429-1.39v-3.26h1.958v3.26a1.412 1.412 0 0 0 1.43 1.39h.059a1.41 1.41 0 0 0 1.429-1.39v-3.26h1.4a1.294 1.294 0 0 0 1.311-1.27V7.8H3.599v9.54zm9.9-15.33L14.615.34a.216.216 0 0 0-.07-.31.235.235 0 0 0-.327.06l-1.154 1.73a7.815 7.815 0 0 0-5.709 0L6.204.09a.237.237 0 0 0-.329-.06.216.216 0 0 0-.07.31l1.114 1.67a5.483 5.483 0 0 0-3.363 4.83c0 .13.008.26.019.38h13.271c.011-.12.018-.25.018-.38a5.482 5.482 0 0 0-3.36-4.83zm-6.368 3a.631.631 0 0 1-.639-.62.639.639 0 0 1 1.278 0 .631.631 0 0 1-.637.62zm6.152 0a.631.631 0 0 1-.638-.62.638.638 0 1 1 .64.62zm5.705 2.57h-.06a1.409 1.409 0 0 0-1.429 1.38v6.05a1.409 1.409 0 0 0 1.429 1.38h.06a1.407 1.407 0 0 0 1.427-1.38V8.96a1.407 1.407 0 0 0-1.425-1.38z"/></symbol><symbol id="icon-apple" viewbox="0 0 18 22.06"><path d="M15.03 11.73a4.964 4.964 0 0 1 2.386-4.2 5.162 5.162 0 0 0-4.042-2.19c-1.721-.18-3.359 1.01-4.232 1.01s-2.22-.99-3.648-.96A5.412 5.412 0 0 0 .922 8.16c-1.949 3.38-.5 8.38 1.4 11.12.928 1.34 2.035 2.85 3.489 2.79 1.4-.05 1.929-.9 3.621-.9s2.168.9 3.649.88c1.506-.03 2.461-1.37 3.383-2.72a12.035 12.035 0 0 0 1.531-3.14 4.855 4.855 0 0 1-2.965-4.46zm-2.784-8.21A4.845 4.845 0 0 0 13.396 0a4.943 4.943 0 0 0-3.255 1.67 4.637 4.637 0 0 0-1.174 3.42 4.106 4.106 0 0 0 3.279-1.57z"/></symbol><symbol id="icon-arrows" viewbox="0 0 26.188 26.156"><path d="M3.419 14.712H.013v8.175l2.421-2.226a13.085 13.085 0 0 0 23.64-5.949h-3.3a9.813 9.813 0 0 1-17.9 3.713l4.041-3.713H3.424zM13.094-.002A13.083 13.083 0 0 0 .114 11.442h3.305A9.814 9.814 0 0 1 21.473 7.97L18 11.442h8.176V3.268l-2.341 2.341A13.064 13.064 0 0 0 13.094-.006z"/></symbol><symbol id="icon-be" viewbox="0 0 35.969 22.4"><path d="M32.478 3.18h-9.009V.94h9.013v2.24zm-15.009 9.18a5.913 5.913 0 0 1 .872 3.28 6.519 6.519 0 0 1-.994 3.57 6.14 6.14 0 0 1-4.109 2.88 15.671 15.671 0 0 1-3.16.31H-.002V.01h10.808q4.086.06 5.8 2.38a5.716 5.716 0 0 1 1.023 3.42 4.99 4.99 0 0 1-1.034 3.3 5.314 5.314 0 0 1-1.7 1.27 5.015 5.015 0 0 1 2.574 1.98zM5.161 8.83h4.736a4.484 4.484 0 0 0 2.365-.55 2.122 2.122 0 0 0 .908-1.97 2 2 0 0 0-1.2-2.06 8.491 8.491 0 0 0-2.642-.35H5.159v4.93zm8.465 6.49a2.4 2.4 0 0 0-1.424-2.4 5.713 5.713 0 0 0-2.237-.38h-4.8v5.97h4.729a5.169 5.169 0 0 0 2.266-.4 2.806 2.806 0 0 0 1.464-2.79zm22.2-3.64a20.965 20.965 0 0 1 .138 3.18H24.289a3.822 3.822 0 0 0 1.675 3.38 4.174 4.174 0 0 0 2.31.61 3.5 3.5 0 0 0 2.326-.74 3.431 3.431 0 0 0 .861-1.1h4.278a5.217 5.217 0 0 1-1.553 2.9 7.781 7.781 0 0 1-6.029 2.34 8.765 8.765 0 0 1-5.646-1.97q-2.441-1.98-2.445-6.43a8.677 8.677 0 0 1 2.206-6.39 7.707 7.707 0 0 1 5.735-2.22 8.988 8.988 0 0 1 3.769.75 6.5 6.5 0 0 1 2.767 2.37 7.9 7.9 0 0 1 1.279 3.32zm-4.211.41a3.512 3.512 0 0 0-1.12-2.53 3.644 3.644 0 0 0-2.484-.87 3.321 3.321 0 0 0-2.5.92 4.343 4.343 0 0 0-1.117 2.48h7.222z"/></symbol><symbol id="icon-check" viewbox="0 0 24 24.25"><path d="M20.299 22.39H1.832V3.74h13.621l1.153-1.86H1.832A1.852 1.852 0 0 0-.014 3.74v18.65a1.852 1.852 0 0 0 1.846 1.86h18.467a1.852 1.852 0 0 0 1.846-1.86V10.08l-1.846 2.98v9.33zM23.408.23a1.25 1.25 0 0 0-.707-.22 1.3 1.3 0 0 0-1.082.59L11.58 15.23l-3.883-4.48a1.284 1.284 0 0 0-1.828.07 1.32 1.32 0 0 0 .072 1.85l4.668 5.37.113.14.118.13.048.03.1.1.253.12.057.02.4.07h.017a1.281 1.281 0 0 0 .957-.41l.1-.17v-.01L23.778 2.03a1.307 1.307 0 0 0-.37-1.8z"/></symbol><symbol id="icon-fb" viewbox="0 0 15.094 27.82"><path d="M14.519.01L10.896 0c-4.069 0-6.7 2.69-6.7 6.85v3.16H.559a.564.564 0 0 0-.57.56v4.58a.573.573 0 0 0 .57.57h3.642v11.54a.573.573 0 0 0 .569.57h4.749a.573.573 0 0 0 .57-.57V15.72h4.258a.573.573 0 0 0 .57-.57v-4.58a.573.573 0 0 0-.166-.4.594.594 0 0 0-.4-.16h-4.26V7.33c0-1.29.308-1.94 1.99-1.94h2.44a.572.572 0 0 0 .569-.57V.57a.563.563 0 0 0-.571-.56z"/></symbol><symbol id="icon-mini" viewbox="0 0 28.594 30"><path d="M14.296.02a1.469 1.469 0 0 0-1.465 1.47V7.1a1.465 1.465 0 1 0 2.929 0V1.49A1.469 1.469 0 0 0 14.296.02zM7.561 3.21a1.457 1.457 0 0 0-2.046-.33 1.481 1.481 0 0 0-.324 2.06l3.287 4.54a1.468 1.468 0 0 0 2.046.32 1.467 1.467 0 0 0 .324-2.05zm-6.532 9.03l5.318 1.73a1.42 1.42 0 0 0 .452.07 1.462 1.462 0 0 0 1.393-1.01 1.484 1.484 0 0 0-.94-1.86L1.934 9.44a1.464 1.464 0 0 0-1.846.94 1.485 1.485 0 0 0 .941 1.86zm7.163 4.77a1.455 1.455 0 0 0-1.845-.94L1.029 17.8a1.472 1.472 0 0 0 .452 2.87 1.431 1.431 0 0 0 .453-.07l5.318-1.74a1.469 1.469 0 0 0 .94-1.85zm2.332 3.22a1.457 1.457 0 0 0-2.046.33L5.191 25.1a1.467 1.467 0 0 0 .324 2.05 1.45 1.45 0 0 0 .86.28 1.471 1.471 0 0 0 1.186-.6l3.287-4.54a1.482 1.482 0 0 0-.324-2.06zm3.772 1.23a1.469 1.469 0 0 0-1.465 1.47v5.62a1.465 1.465 0 1 0 2.929 0v-5.62a1.469 1.469 0 0 0-1.464-1.47zm5.817-.9a1.456 1.456 0 0 0-2.045-.33 1.48 1.48 0 0 0-.324 2.06l3.287 4.54a1.469 1.469 0 0 0 2.047.32 1.468 1.468 0 0 0 .323-2.05l-3.288-4.54zm7.45-2.76l-5.318-1.73a1.467 1.467 0 0 0-.9 2.79l5.318 1.74a1.426 1.426 0 0 0 .453.07 1.472 1.472 0 0 0 .447-2.87zm-7.164-4.77a1.462 1.462 0 0 0 1.393 1.01 1.431 1.431 0 0 0 .453-.07l5.318-1.73a1.484 1.484 0 0 0 .94-1.86 1.463 1.463 0 0 0-1.845-.94l-5.318 1.73a1.476 1.476 0 0 0-.941 1.86zM18.068 9.8a1.45 1.45 0 0 0 .86.28 1.471 1.471 0 0 0 1.186-.6l3.287-4.54a1.481 1.481 0 0 0-.323-2.06 1.457 1.457 0 0 0-2.046.33l-3.287 4.54a1.466 1.466 0 0 0 .323 2.05z"/></symbol><symbol id="icon-pin" viewbox="0 0 27.563 27.5"><path d="M13.781 0A13.755 13.755 0 1 0 27.56 13.75 13.767 13.767 0 0 0 13.781 0zm1.336 18.38c-1.252-.1-1.778-.72-2.759-1.31-.54 2.82-1.2 5.53-3.152 6.95-.6-4.27.885-7.48 1.576-10.89-1.178-1.98.142-5.96 2.627-4.98 3.058 1.21-2.648 7.36 1.182 8.13 4 .8 5.633-6.93 3.153-9.44-3.584-3.63-10.431-.09-9.589 5.11.2 1.27 1.52 1.66.525 3.41-2.293-.5-2.978-2.31-2.89-4.72.142-3.94 3.547-6.7 6.962-7.08 4.319-.48 8.373 1.58 8.933 5.64.63 4.58-1.95 9.54-6.568 9.18z"/></symbol><symbol id="icon-upload" viewbox="0 0 23.531 23.5"><path d="M13.666 20.479a6.836 6.836 0 0 1-6.827-6.829 1.518 1.518 0 1 0-3.035 0 9.863 9.863 0 1 0 9.862-9.865 1.518 1.518 0 0 0 0 3.036 6.829 6.829 0 0 1 0 13.658zM10.11-.012a1.518 1.518 0 0 1 0 3.036H5.189l2.592 2.59 6.21 6.21a1.519 1.519 0 0 1-2.146 2.149L5.635 7.76l-2.59-2.592v4.922a1.517 1.517 0 1 1-3.034 0V-.012h10.1"/></symbol><symbol id="icon-windows" viewbox="0 0 17.281 17.29"><path d="M.012 8.07L.006 2.45l6.911-.93v6.55h-6.9zm8.057-6.72L17.281.01v8.06H8.069V1.35zm9.214 7.87v8.07l-9.212-1.3V9.22h9.214zM6.917 15.84L.011 14.9V9.22h6.908v6.62z"/></symbol></svg>